<svg xmlns="http://www.w3.org/2000/svg" viewBox="0 0 64 64" width="64" height="64">
  <defs>
    <linearGradient id="bg" x1="0%" y1="0%" x2="100%" y2="100%">
      <stop offset="0%" style="stop-color:#6366f1"/>
      <stop offset="100%" style="stop-color:#8b5cf6"/>
    </linearGradient>
  </defs>
  <rect width="64" height="64" rx="14" fill="url(#bg)"/>
  <!-- Brain left hemisphere -->
  <path d="M20 38c-2-1-4-3.5-4-6.5 0-2 .8-3.5 2-4.5-.5-1.2-.5-2.8.3-4.2 1-1.8 2.8-2.8 4.7-2.8.5-1.8 2-3.2 4-3.5 2.2-.3 4.2.7 5 2.5" fill="none" stroke="white" stroke-width="2.2" stroke-linecap="round" stroke-linejoin="round"/>
  <!-- Brain right hemisphere -->
  <path d="M44 38c2-1 4-3.5 4-6.5 0-2-.8-3.5-2-4.5.5-1.2.5-2.8-.3-4.2-1-1.8-2.8-2.8-4.7-2.8-.5-1.8-2-3.2-4-3.5-2.2-.3-4.2.7-5 2.5" fill="none" stroke="white" stroke-width="2.2" stroke-linecap="round" stroke-linejoin="round"/>
  <!-- Brain center line -->
  <path d="M32 16v26" fill="none" stroke="white" stroke-width="1.5" stroke-linecap="round" opacity="0.6"/>
  <!-- Brain folds left -->
  <path d="M22 26c3 1 6 1 10 0M20 32c4 1.5 8 1.5 12 0" fill="none" stroke="white" stroke-width="1.5" stroke-linecap="round" opacity="0.5"/>
  <!-- Brain folds right -->
  <path d="M32 26c4 1 7 1 10 0M32 32c4 1.5 8 1.5 12 0" fill="none" stroke="white" stroke-width="1.5" stroke-linecap="round" opacity="0.5"/>
  <!-- Neural nodes -->
  <circle cx="25" cy="29" r="1.8" fill="white" opacity="0.9"/>
  <circle cx="39" cy="29" r="1.8" fill="white" opacity="0.9"/>
  <circle cx="32" cy="22" r="1.8" fill="white" opacity="0.9"/>
  <circle cx="32" cy="36" r="1.8" fill="white" opacity="0.9"/>
  <!-- Neural connections -->
  <line x1="25" y1="29" x2="32" y2="22" stroke="white" stroke-width="1" opacity="0.4"/>
  <line x1="39" y1="29" x2="32" y2="22" stroke="white" stroke-width="1" opacity="0.4"/>
  <line x1="25" y1="29" x2="32" y2="36" stroke="white" stroke-width="1" opacity="0.4"/>
  <line x1="39" y1="29" x2="32" y2="36" stroke="white" stroke-width="1" opacity="0.4"/>
  <!-- Brain stem -->
  <path d="M30 42c0 3 1 5 2 6 1-1 2-3 2-6" fill="none" stroke="white" stroke-width="2" stroke-linecap="round"/>
</svg>
